<svg xmlns="http://www.w3.org/2000/svg" width="1080" height="1350" viewBox="0 0 1080 1350">
    <defs>
      <filter id="shadow" x="-20%" y="-20%" width="140%" height="160%">
        <feDropShadow dx="0" dy="22" stdDeviation="22" flood-color="#17231D" flood-opacity="0.12" />
      </filter>
      <filter id="softShadow" x="-20%" y="-20%" width="140%" height="150%">
        <feDropShadow dx="0" dy="12" stdDeviation="16" flood-color="#17231D" flood-opacity="0.08" />
      </filter>
      <clipPath id="previewClip">
        <rect x="72" y="430" width="936" height="658" rx="30" />
      </clipPath>
      <clipPath id="featureClip">
        <rect x="94" y="536" width="892" height="514" rx="28" />
      </clipPath>
      <pattern id="grid" width="52" height="52" patternUnits="userSpaceOnUse">
        <path d="M 52 0 L 0 0 0 52" fill="none" stroke="rgba(49,95,70,0.055)" stroke-width="1"/>
      </pattern>
    </defs>
    <rect width="1080" height="1350" fill="#FAFAFA" />
    <rect width="1080" height="1350" fill="url(#grid)" />
    <g>
    <circle cx="91" cy="87" r="13" fill="#315F46" />
    <text x="118" y="100" fill="#17231D" font-family="Avenir Next, Avenir, Arial, sans-serif" font-size="46" font-weight="700" letter-spacing="-2">Demaa</text>
  </g>
    <text x="991" y="101" text-anchor="end" fill="#6F756E" font-family="Avenir Next, Avenir, Arial, sans-serif" font-size="24" font-weight="600">01 / 07</text>

    <g>
    <rect x="72" y="176" width="362" height="48" rx="24" fill="#F1F3F0" stroke="#E5E8E5" />
    <text x="253" y="207" text-anchor="middle" fill="#315F46" font-family="Avenir Next, Avenir, Arial, sans-serif" font-size="19" font-weight="700" letter-spacing="1.5">POUR DIRIGEANTS DU BÂTIMENT</text>
  </g>
    <text x="72" y="330" text-anchor="start" fill="#17231D" font-family="Avenir Next, Avenir, Arial, sans-serif" font-size="78" font-weight="700" letter-spacing="0">
    <tspan x="72" dy="0">Votre entreprise</tspan>
<tspan x="72" dy="81.12">tourne encore trop</tspan>
<tspan x="72" dy="81.12">dans votre tête ?</tspan>
  </text>
    <text x="72" y="650" text-anchor="start" fill="#6F756E" font-family="Avenir Next, Avenir, Arial, sans-serif" font-size="31" font-weight="500" letter-spacing="0">
    <tspan x="72" dy="0">Recevez le tableau qui centralise vos chiffres,</tspan>
<tspan x="72" dy="44.949999999999996">vos priorités, votre équipe et vos process.</tspan>
  </text>
    <g transform="translate(72 810)">
      <rect width="936" height="278" rx="34" fill="#FFFFFF" stroke="#E5E8E5" filter="url(#softShadow)" />
      <rect x="32" y="32" width="220" height="214" rx="24" fill="#F1F3F0" />
      <path d="M81 143h122M81 104h82M81 182h98" stroke="#315F46" stroke-width="12" stroke-linecap="round" opacity="0.9"/>
      <circle cx="188" cy="104" r="18" fill="#EAF3ED" stroke="#315F46" stroke-width="5"/>
      <text x="294" y="99" text-anchor="start" fill="#17231D" font-family="Avenir Next, Avenir, Arial, sans-serif" font-size="34" font-weight="700" letter-spacing="0">
    <tspan x="294" dy="0">Google Sheet prêt à copier</tspan>
  </text>
      <text x="294" y="160" text-anchor="start" fill="#6F756E" font-family="Avenir Next, Avenir, Arial, sans-serif" font-size="27" font-weight="500" letter-spacing="0">
    <tspan x="294" dy="0">Adapté à votre métier.</tspan>
<tspan x="294" dy="40.5">Disponible immédiatement.</tspan>
<tspan x="294" dy="40.5">Gratuit.</tspan>
  </text>
    </g>
    <text x="72" y="1200" fill="#315F46" font-family="Avenir Next, Avenir, Arial, sans-serif" font-size="24" font-weight="700">Faites défiler pour voir exactement ce que vous recevez</text>
    <path d="M924 1191h64m-20-20 20 20-20 20" fill="none" stroke="#315F46" stroke-width="5" stroke-linecap="round" stroke-linejoin="round" />

    <g>
    <rect x="98" y="1287" width="116" height="7" rx="3.5" fill="#315F46" /><rect x="226" y="1287" width="116" height="7" rx="3.5" fill="#D9DEDA" /><rect x="354" y="1287" width="116" height="7" rx="3.5" fill="#D9DEDA" /><rect x="482" y="1287" width="116" height="7" rx="3.5" fill="#D9DEDA" /><rect x="610" y="1287" width="116" height="7" rx="3.5" fill="#D9DEDA" /><rect x="738" y="1287" width="116" height="7" rx="3.5" fill="#D9DEDA" /><rect x="866" y="1287" width="116" height="7" rx="3.5" fill="#D9DEDA" />
  </g>
  </svg>