<svg xmlns="http://www.w3.org/2000/svg" width="1080" height="1350" viewBox="0 0 1080 1350">
    <defs>
      <filter id="shadow" x="-20%" y="-20%" width="140%" height="160%">
        <feDropShadow dx="0" dy="22" stdDeviation="22" flood-color="#17231D" flood-opacity="0.12" />
      </filter>
      <filter id="softShadow" x="-20%" y="-20%" width="140%" height="150%">
        <feDropShadow dx="0" dy="12" stdDeviation="16" flood-color="#17231D" flood-opacity="0.08" />
      </filter>
      <clipPath id="previewClip">
        <rect x="72" y="430" width="936" height="658" rx="30" />
      </clipPath>
      <clipPath id="featureClip">
        <rect x="94" y="536" width="892" height="514" rx="28" />
      </clipPath>
      <pattern id="grid" width="52" height="52" patternUnits="userSpaceOnUse">
        <path d="M 52 0 L 0 0 0 52" fill="none" stroke="rgba(49,95,70,0.055)" stroke-width="1"/>
      </pattern>
    </defs>
    <rect width="1080" height="1350" fill="#FAFAFA" />
    <rect width="1080" height="1350" fill="url(#grid)" />
    <g>
    <circle cx="91" cy="87" r="13" fill="#315F46" />
    <text x="118" y="100" fill="#17231D" font-family="Avenir Next, Avenir, Arial, sans-serif" font-size="46" font-weight="700" letter-spacing="-2">Demaa</text>
  </g>
    <text x="991" y="101" text-anchor="end" fill="#6F756E" font-family="Avenir Next, Avenir, Arial, sans-serif" font-size="24" font-weight="600">06 / 07</text>

    <g>
    <rect x="72" y="176" width="276" height="48" rx="24" fill="#F1F3F0" stroke="#E5E8E5" />
    <text x="210" y="207" text-anchor="middle" fill="#315F46" font-family="Avenir Next, Avenir, Arial, sans-serif" font-size="19" font-weight="700" letter-spacing="1.5">PRÊT À UTILISER</text>
  </g>
    <text x="72" y="290" text-anchor="start" fill="#17231D" font-family="Avenir Next, Avenir, Arial, sans-serif" font-size="65" font-weight="700" letter-spacing="0">
    <tspan x="72" dy="0">Vous ne partez pas</tspan>
<tspan x="72" dy="68.9">d’une page blanche.</tspan>
  </text>
    <g transform="translate(72 479)">
      <rect width="936" height="612" rx="34" fill="#FFFFFF" stroke="#E5E8E5" filter="url(#softShadow)" />
      <g transform="translate(36 38)">

          <g transform="translate(0 0)">
            <circle cx="51" cy="51" r="51" fill="#F1F3F0" />
            <text x="51" y="64" text-anchor="middle" fill="#315F46" font-family="Avenir Next, Avenir, Arial, sans-serif" font-size="35" font-weight="700">1</text>
            <text x="133" y="45" fill="#17231D" font-family="Avenir Next, Avenir, Arial, sans-serif" font-size="32" font-weight="700">Copiez</text>
            <text x="133" y="83" fill="#6F756E" font-family="Avenir Next, Avenir, Arial, sans-serif" font-size="24" font-weight="500">le Google Sheet dans votre Drive.</text>
          </g>

          <g transform="translate(0 165)">
            <circle cx="51" cy="51" r="51" fill="#315F46" />
            <text x="51" y="64" text-anchor="middle" fill="#FFFFFF" font-family="Avenir Next, Avenir, Arial, sans-serif" font-size="35" font-weight="700">2</text>
            <text x="133" y="45" fill="#17231D" font-family="Avenir Next, Avenir, Arial, sans-serif" font-size="32" font-weight="700">Renseignez</text>
            <text x="133" y="83" fill="#6F756E" font-family="Avenir Next, Avenir, Arial, sans-serif" font-size="24" font-weight="500">vos chiffres, actions et responsables.</text>
          </g>

          <g transform="translate(0 330)">
            <circle cx="51" cy="51" r="51" fill="#F1F3F0" />
            <text x="51" y="64" text-anchor="middle" fill="#315F46" font-family="Avenir Next, Avenir, Arial, sans-serif" font-size="35" font-weight="700">3</text>
            <text x="133" y="45" fill="#17231D" font-family="Avenir Next, Avenir, Arial, sans-serif" font-size="32" font-weight="700">Pilotez</text>
            <text x="133" y="83" fill="#6F756E" font-family="Avenir Next, Avenir, Arial, sans-serif" font-size="24" font-weight="500">votre entreprise depuis une base claire.</text>
          </g>

      </g>
    </g>
    <g transform="translate(72 1134)">
      <rect width="936" height="76" rx="24" fill="#EAF3ED" />
      <text x="468" y="48" text-anchor="middle" fill="#315F46" font-family="Avenir Next, Avenir, Arial, sans-serif" font-size="24" font-weight="700">Modifiable • personnel • directement exploitable</text>
    </g>

    <g>
    <rect x="98" y="1287" width="116" height="7" rx="3.5" fill="#315F46" /><rect x="226" y="1287" width="116" height="7" rx="3.5" fill="#315F46" /><rect x="354" y="1287" width="116" height="7" rx="3.5" fill="#315F46" /><rect x="482" y="1287" width="116" height="7" rx="3.5" fill="#315F46" /><rect x="610" y="1287" width="116" height="7" rx="3.5" fill="#315F46" /><rect x="738" y="1287" width="116" height="7" rx="3.5" fill="#315F46" /><rect x="866" y="1287" width="116" height="7" rx="3.5" fill="#D9DEDA" />
  </g>
  </svg>